<?xml version="1.0" encoding="UTF-8" standalone="no"?>
<svg
   height="111.71869"
   version="1.1"
   width="111.71869"
   id="svg10524"
   sodipodi:docname="demoiMobileA.svg"
   inkscape:version="1.3 (1:1.3+202307231459+0e150ed6c4)"
   xml:space="preserve"
   xmlns:inkscape="http://www.inkscape.org/namespaces/inkscape"
   xmlns:sodipodi="http://sodipodi.sourceforge.net/DTD/sodipodi-0.dtd"
   xmlns:xlink="http://www.w3.org/1999/xlink"
   xmlns="http://www.w3.org/2000/svg"
   xmlns:svg="http://www.w3.org/2000/svg"><defs
     id="defs10524"><rect
       x="91.381386"
       y="490.89636"
       width="1871.7539"
       height="1631.451"
       id="rect10547" /><rect
       x="118.32838"
       y="484.59512"
       width="1816.524"
       height="1061.7651"
       id="rect10541" /><clipPath
       id="clipPath18"
       clipPathUnits="userSpaceOnUse"><path
         id="path16-9"
         d="M 0,595.28 H 841.89 V 0 H 0 Z" /></clipPath><rect
       x="91.381386"
       y="490.89636"
       width="1871.7539"
       height="1631.451"
       id="rect23" /><rect
       x="91.381386"
       y="490.89636"
       width="1871.7539"
       height="1631.451"
       id="rect34" /><rect
       x="91.381386"
       y="490.89636"
       width="1871.7539"
       height="1631.451"
       id="rect10547-1" /><rect
       x="118.32838"
       y="484.59512"
       width="1816.524"
       height="1061.7651"
       id="rect10541-2" /><clipPath
       id="clipPath18-9"
       clipPathUnits="userSpaceOnUse"><path
         id="path16-9-3"
         d="M 0,595.28 H 841.89 V 0 H 0 Z" /></clipPath><rect
       x="91.381386"
       y="490.89636"
       width="1871.7539"
       height="1631.451"
       id="rect23-9" /><rect
       x="91.381386"
       y="490.89636"
       width="1871.7539"
       height="1631.451"
       id="rect34-0" /></defs><sodipodi:namedview
     id="namedview10524"
     pagecolor="#ffffff"
     bordercolor="#000000"
     borderopacity="0.25"
     inkscape:showpageshadow="2"
     inkscape:pageopacity="0.0"
     inkscape:pagecheckerboard="0"
     inkscape:deskcolor="#d1d1d1"
     showguides="true"
     inkscape:zoom="5.1833257"
     inkscape:cx="60.482405"
     inkscape:cy="57.974362"
     inkscape:window-width="2560"
     inkscape:window-height="1043"
     inkscape:window-x="1280"
     inkscape:window-y="0"
     inkscape:window-maximized="1"
     inkscape:current-layer="svg10524"><sodipodi:guide
       position="-485.89418,-989.58472"
       orientation="0,-1"
       id="guide10527"
       inkscape:locked="false" /><sodipodi:guide
       position="197.25077,916.88998"
       orientation="0,-1"
       id="guide10547"
       inkscape:locked="false" /><sodipodi:guide
       position="-958.88343,2938.6402"
       orientation="1,0"
       id="guide1"
       inkscape:locked="false" /><sodipodi:guide
       position="1163.5853,3061.8672"
       orientation="1,0"
       id="guide2"
       inkscape:locked="false" /></sodipodi:namedview><text
     xml:space="preserve"
     style="font-style:normal;font-variant:normal;font-weight:normal;font-stretch:normal;font-size:66.6667px;font-family:FreeSerif;-inkscape-font-specification:FreeSerif;fill:#000000;stroke:#000000;stroke-width:1.86709"
     x="-425.75323"
     y="-732.6922"
     id="text10527"><tspan
       sodipodi:role="line"
       x="-425.75323"
       y="-732.6922"
       style="font-size:66.6667px"
       id="tspan10532" /></text><text
     xml:space="preserve"
     id="text10541"
     style="font-style:normal;font-variant:normal;font-weight:normal;font-stretch:normal;font-size:66.6667px;font-family:FreeSerif;-inkscape-font-specification:FreeSerif;text-align:justify;white-space:pre;shape-inside:url(#rect10541);display:inline;fill:#000000;stroke:#000000;stroke-width:1.86709"
     transform="translate(-541.48401,-1433.4238)" /><a
     id="a10547"
     xlink:actuate=""
     xlink:href="http://prototipe.com.br/html_3d/demoi3d.html"
     transform="matrix(0.34912092,0,0,0.34912092,-565.3199,-1286.7822)"><g
       id="g14"
       clip-path="url(#clipPath18)"
       transform="matrix(1.3333333,0,0,-1.3333333,1224.0493,4228.157)"><g
         id="g20"
         transform="translate(536.4131,178.7842)"><path
           d="m 0,0 c 0,-6.627 -5.373,-12 -12,-12 h -216 c -6.627,0 -12,5.373 -12,12 v 216 c 0,6.627 5.373,12 12,12 h 216 c 6.627,0 12,-5.373 12,-12 z"
           style="fill:#3788c7;fill-opacity:1;fill-rule:nonzero;stroke:none"
           id="path22-4" /></g><path
         d="m 430.228,311.095 h 0.883 V 296.98 h -0.883 z"
         style="fill:#ffffff;fill-opacity:1;fill-rule:nonzero;stroke:none"
         id="path24-8" /><path
         d="m 364.482,304.641 h 76.856 v -0.882 h -76.856 z"
         style="fill:#ffffff;fill-opacity:1;fill-rule:nonzero;stroke:none"
         id="path26-1" /><path
         d="m 382.85,306.707 h 0.882 v -4.916 h -0.882 z"
         style="fill:#ffffff;fill-opacity:1;fill-rule:nonzero;stroke:none"
         id="path28-2" /><g
         id="g30"
         transform="translate(363.8643,305.333)"><path
           d="M 0,0 0.882,0.078 V -2.326 L 0,-2.236 Z"
           style="fill:#ffffff;fill-opacity:1;fill-rule:nonzero;stroke:none"
           id="path32-9" /></g><g
         id="g34"
         transform="translate(363.9482,303.085)"><path
           d="M 0,0 0.142,0.904 79.221,-6.422 79.23,-7.467 Z"
           style="fill:#ffffff;fill-opacity:1;fill-rule:nonzero;stroke:none"
           id="path36-3" /></g><g
         id="g38"
         transform="translate(363.9482,305.3291)"><path
           d="M 0,0 0.142,-0.902 79.221,6.424 79.23,7.469 Z"
           style="fill:#ffffff;fill-opacity:1;fill-rule:nonzero;stroke:none"
           id="path40-9" /></g><g
         id="g42"
         transform="translate(493.2637,226.4932)"><path
           d="m 0,0 h -52.583 c 0,0 1.444,3.006 0.114,6.53 0,0 1.214,3.41 0,6.417 0,0 1.157,3.063 0,6.532 0,0 1.157,2.716 0,6.417 0,0 1.33,3.178 -0.056,6.53 0,0 1.559,3.12 0.056,6.533 0,0 1.273,3.002 0,6.416 0,0 1.273,3.062 0,6.354 0,0 1.214,3.238 0,6.587 0,0 1.387,2.774 0.06,6.414 0,0 1.188,3.237 -0.116,6.416 0,0 1.049,3.092 0.034,6.625 h 44.834 c 0,0 -0.762,-3.533 -0.083,-6.667 0,0 -1.103,-3.729 0.083,-6.442 0,0 -1.186,-3.222 0,-6.44 0,0 -1.186,-3.388 0,-6.525 0,0 -1.101,-2.963 0,-6.353 h 7.629 c 0,0 -1.272,-2.881 0,-6.528 0,0 -1.103,-2.795 0,-6.441 0,0 -1.188,-3.052 0,-6.525 0,0 -1.188,-2.881 0,-6.359 0,0 -1.188,-3.052 0,-6.608 0,0 -1.188,-3.899 0,-6.358 0,0 -1.214,-3.389 0.028,-6.525"
           style="fill:#ffffff;fill-opacity:1;fill-rule:nonzero;stroke:none"
           id="path44-0" /></g><g
         id="g46"
         transform="translate(493.2637,381.8926)"><path
           d="m 0,0 h -52.583 c 0,0 1.444,-3.007 0.114,-6.531 0,0 1.214,-3.411 0,-6.417 0,0 1.157,-3.064 0,-6.531 0,0 1.157,-2.717 0,-6.417 0,0 1.33,-3.179 -0.056,-6.531 0,0 1.559,-3.121 0.056,-6.532 0,0 1.273,-3.005 0,-6.416 0,0 1.273,-3.063 0,-6.358 0,0 1.214,-3.237 0,-6.589 0,0 1.387,-2.775 0.06,-6.416 0,0 1.188,-3.237 -0.116,-6.415 0,0 1.049,-3.094 0.034,-6.51 h 44.834 c 0,0 -0.762,3.416 -0.083,6.553 0,0 -1.103,3.728 0.083,6.44 0,0 -1.186,3.223 0,6.443 0,0 -1.186,3.39 0,6.526 0,0 -1.101,2.966 0,6.357 h 7.629 c 0,0 -1.272,2.88 0,6.525 0,0 -1.103,2.798 0,6.441 0,0 -1.188,3.052 0,6.527 0,0 -1.188,2.883 0,6.356 0,0 -1.188,3.053 0,6.611 0,0 -1.188,3.9 0,6.358 0,0 -1.214,3.389 0.028,6.526"
           style="fill:#ffffff;fill-opacity:1;fill-rule:nonzero;stroke:none"
           id="path48-8" /></g><g
         id="g50"
         transform="translate(487.7158,304.0439)"><path
           d="m 0,0 v -1.438 -0.888 c -0.033,-2.023 -0.033,-4.662 0.002,-6.458 0.025,-1.357 0,-16.9 0,-16.9 0,0 -0.035,-4.311 1.65,-4.311 0,0 1.399,-0.381 1.697,4.068 0.294,4.445 -0.851,14.148 -0.851,14.148 l -0.676,6.315 c 0,0 -0.339,2.704 0.762,3.126 1.103,0.424 2.657,0.673 2.657,2.367"
           style="fill:#ffffff;fill-opacity:1;fill-rule:nonzero;stroke:none"
           id="path52-8" /></g><g
         id="g54"
         transform="translate(487.7158,304.0254)"><path
           d="m 0,0 v 1.437 0.888 c -0.033,2.024 -0.033,4.666 0.002,6.46 0.025,1.357 0,16.902 0,16.902 0,0 -0.035,4.315 1.65,4.315 0,0 1.399,0.381 1.697,-4.069 C 3.643,21.483 2.498,11.778 2.498,11.778 L 1.822,5.465 c 0,0 -0.339,-2.704 0.762,-3.128 C 3.687,1.913 5.241,1.665 5.241,-0.03"
           style="fill:#ffffff;fill-opacity:1;fill-rule:nonzero;stroke:none"
           id="path56-5" /></g><g
         id="g58"
         transform="translate(334.0127,304.166)"><path
           d="m 0,0 c 0,0 6.793,-0.316 17.472,-20.147 0.615,-0.268 7.544,-3.049 10.405,-7.348 0,0 3.828,9.242 12.109,14.394 L 27.983,-1.188 v 1.16 z"
           style="fill:#ffffff;fill-opacity:1;fill-rule:nonzero;stroke:none"
           id="path60-0" /></g><g
         id="g62"
         transform="translate(361.998,304.1982)"><path
           d="M 0,0 C 0,0.119 0.1,0.216 0.218,0.216 0.337,0.216 0.435,0.119 0.435,0 0.435,-0.123 0.337,-0.219 0.218,-0.219 0.1,-0.219 0,-0.123 0,0"
           style="fill:#ffffff;fill-opacity:1;fill-rule:nonzero;stroke:none"
           id="path64-9" /></g><g
         id="g66"
         transform="translate(363.418,304.1982)"><path
           d="M 0,0 C 0,0.119 0.098,0.216 0.218,0.216 0.337,0.216 0.436,0.119 0.436,0 0.436,-0.123 0.337,-0.219 0.218,-0.219 0.098,-0.219 0,-0.123 0,0"
           style="fill:#ffffff;fill-opacity:1;fill-rule:nonzero;stroke:none"
           id="path68-6" /></g><path
         d="m 406.666,309.217 h 0.882 v -10.151 h -0.882 z"
         style="fill:#ffffff;fill-opacity:1;fill-rule:nonzero;stroke:none"
         id="path70-3" /><path
         d="m 362.191,304.414 h 1.445 v -0.434 h -1.445 z"
         style="fill:#ffffff;fill-opacity:1;fill-rule:nonzero;stroke:none"
         id="path72-8" /><g
         id="g74"
         transform="translate(334.0127,304.1455)"><path
           d="m 0,0 c 0,0 6.793,0.316 17.472,20.148 0.615,0.27 7.54,3.052 10.397,7.352 0,0 3.836,-9.246 12.117,-14.398 L 27.983,1.19 V 0.027 Z"
           style="fill:#ffffff;fill-opacity:1;fill-rule:nonzero;stroke:none"
           id="path76-5" /></g><path
         d="m 491.209,307.446 h 4.108 v -6.91 h -4.108 z"
         style="fill:#3788c7;fill-opacity:1;fill-rule:nonzero;stroke:none"
         id="path78-6" /><path
         d="m 489.255,303.395 h -6.51 v 1.771 h 6.51 z"
         style="fill:#ffffff;fill-opacity:1;fill-rule:nonzero;stroke:none"
         id="path80-1" /><g
         id="g82"
         transform="translate(346.5186,190.499)"><path
           d="M 0,0 V -0.504 H -5.459 V 0 c 0.798,0.21 0.966,0.42 0.966,1.218 V 19.82 c 0,0.798 -0.168,1.05 -0.966,1.26 v 0.462 H 12.85 c 0.755,0 1.007,0.252 1.217,1.05 h 0.504 v -4.745 h -0.462 c -0.21,0.798 -0.42,0.966 -1.217,0.966 h -13.9 v -6.635 h 9.154 c 0.756,0 1.008,0.21 1.218,1.008 H 9.868 V 8.482 H 9.406 C 9.196,9.28 8.986,9.448 8.188,9.448 H -1.008 V 1.218 C -1.008,0.42 -0.798,0.21 0,0"
           style="fill:#373535;fill-opacity:1;fill-rule:nonzero;stroke:none"
           id="path84-1" /></g><g
         id="g86"
         transform="translate(385.9922,206.2461)"><path
           d="m 0,0 c 0,0.588 -0.504,0.924 -1.512,1.47 -2.142,1.134 -4.199,1.721 -6.383,1.721 -5.626,0 -9.197,-3.485 -9.197,-8.44 0,-5.039 3.738,-8.356 9.281,-8.356 4.577,0 7.979,3.107 7.979,3.737 0,0.168 -0.084,0.42 -0.211,0.756 l 0.379,0.336 3.443,-4.284 -0.42,-0.294 c -0.336,0.252 -0.588,0.378 -0.839,0.378 -0.295,0 -0.84,-0.587 -1.975,-1.259 -2.688,-1.638 -5.416,-2.394 -8.524,-2.394 -7.726,0 -12.681,5.039 -12.681,11.422 0,6.341 4.996,11.38 12.471,11.38 5.585,0 9.113,-2.52 9.869,-2.52 0.252,0 0.504,0.21 0.84,0.546 L 2.939,3.947 0.293,-0.84 -0.127,-0.588 C -0.043,-0.378 0,-0.168 0,0"
           style="fill:#373535;fill-opacity:1;fill-rule:nonzero;stroke:none"
           id="path88-5" /></g><g
         id="g90"
         transform="translate(405.9395,192.6826)"><path
           d="M 0,0 3.149,4.577 3.527,4.283 C 3.401,3.947 3.359,3.695 3.359,3.527 c 0,-0.756 3.528,-3.611 8.525,-3.611 4.577,0 7.222,1.722 7.222,4.031 0,2.394 -2.309,2.94 -7.264,3.066 -6.845,0.21 -10.204,1.511 -10.204,5.669 0,3.863 4.199,7.012 10.498,7.012 4.409,0 7.6,-2.057 8.482,-2.057 0.252,0 0.546,0.21 0.882,0.546 l 0.42,-0.252 -2.646,-4.745 -0.42,0.252 c 0.084,0.125 0.126,0.293 0.126,0.419 0,1.344 -3.233,2.94 -7.096,2.94 -4.157,0 -6.719,-1.68 -6.719,-3.611 0,-2.898 3.527,-2.562 8.356,-2.856 C 19.61,9.952 22.55,8.272 22.55,4.199 22.55,0.294 17.931,-3.107 11.548,-3.107 5.417,-3.107 2.016,0.126 1.176,0.126 0.924,0.126 0.756,0 0.42,-0.252 Z"
           style="fill:#373535;fill-opacity:1;fill-rule:nonzero;stroke:none"
           id="path92-9" /></g><path
         d="m 461.033,197.68 h -24.564 v 2.016 h 24.564 z m 0,7.642 h -24.564 v 2.016 h 24.564 z"
         style="fill:#373535;fill-opacity:1;fill-rule:nonzero;stroke:none"
         id="path94-8" /><g
         id="g96"
         transform="translate(474.8926,192.8086)"><path
           d="m 0,0 h 7.097 c 5.879,0 8.902,2.939 8.902,8.272 0,5.207 -3.023,8.273 -8.902,8.273 H 0 Z m -4.451,-2.31 c 0.798,0.21 0.966,0.42 0.966,1.218 v 18.603 c 0,0.798 -0.168,1.05 -0.966,1.26 v 0.461 H 5.837 c 4.199,0 7.349,-0.336 9.952,-2.477 2.226,-1.848 3.527,-4.871 3.527,-8.525 0,-3.695 -1.301,-6.718 -3.527,-8.566 -2.603,-2.142 -5.753,-2.477 -9.952,-2.477 H -4.451 Z"
           style="fill:#373535;fill-opacity:1;fill-rule:nonzero;stroke:none"
           id="path98-4" /></g></g></a><text
     xml:space="preserve"
     style="font-size:20px;line-height:0.65;font-family:FreeSerif;-inkscape-font-specification:FreeSerif;text-align:justify;fill:#ff0000;stroke:#ff1010;stroke-width:5.26866"
     x="-513.2699"
     y="-1223.1461"
     id="text1"><tspan
       sodipodi:role="line"
       id="tspan1"
       x="-513.2699"
       y="-1223.1461" /></text><text
     xml:space="preserve"
     style="font-size:20px;line-height:0.65;font-family:FreeSerif;-inkscape-font-specification:FreeSerif;text-align:justify;fill:#ff0000;stroke:#ff1010;stroke-width:5.26866"
     x="-486.72446"
     y="-1733.6934"
     id="text2"><tspan
       sodipodi:role="line"
       id="tspan2"
       x="-486.72446"
       y="-1733.6934" /></text></svg>
